<?xml version="1.0" encoding="utf-8"?>
<!-- Generator: Adobe Illustrator 23.0.5, SVG Export Plug-In . SVG Version: 6.00 Build 0)  -->
<svg version="1.1" id="Capa_1" xmlns="http://www.w3.org/2000/svg" xmlns:xlink="http://www.w3.org/1999/xlink" x="0px" y="0px"
	 viewBox="0 0 2122 2122" style="enable-background:new 0 0 2122 2122;" xml:space="preserve">
<style type="text/css">
	.st0{fill:#D49979;}
	.st1{fill:#DBDDDC;}
	.st2{fill:#004995;}
	.st3{fill:#003578;}
	.st4{fill:#4067AA;}
	.st5{fill:#C8DFF1;}
	.st6{fill:#65A2C2;}
	.st7{fill:#A3C9E3;}
	.st8{fill:#FFFFFF;}
	.st9{fill:#D49D7A;}
	.st10{fill:#E0AA87;}
	.st11{fill:#D29171;}
	.st12{fill:#D8D9DD;}
	.st13{fill:#1C2125;}
	.st14{fill:#363C43;}
	.st15{fill:#88C0DE;}
	.st16{fill:#A67945;}
	.st17{fill:#3C2C17;}
	.st18{fill:#D39374;}
	.st19{fill:#A36F42;}
	.st20{fill:#DB9A7C;}
</style>
<path class="st0" d="M1207.9,663.8c0,0-68.4,91.9-205,93.7c-50.1-3.7-5.6-59.8,1.1-66.8c25.1-26.5,23.5-27.1,56.6-51.4
	c71.6-52.6,95.2-49.9,95.2-49.9S1229,592.1,1207.9,663.8z"/>
<path class="st0" d="M973.6,758.9c0,0,78.9,129.5,208.8,213.8c0,0,27.6,2.9,16.6-14.1c-25-38.7-133.7-248.3-176.8-260.3
	C974.1,684.8,973.6,758.9,973.6,758.9z"/>
<path class="st0" d="M1200.5,533.3c-58,27.9-78.1,64.6-73.7,100.2c4.4,35.7,58.9,49.7,92.4,36.1c47-19.1,74.8-44.1,79.1-87
	C1302,546.9,1233.1,517.7,1200.5,533.3z"/>
<path class="st0" d="M1164.3,922.9c-5.7,0.1-12.1,2.4-15.2,7.5c-7,11.4-2.8,29.1-0.1,41.1c3.5,15.2,5.4,36.7,21.5,44.3
	c2.5,1.2,5.8,1,8.4,1.7c5.6,1.5,6.2,5.8,11.8,3.2c3.2-1.4,12-0.4,14.4-2.6c2.3-2.1,12.3-1.4,14.6-3.2c14-10.8,22-18.4,19.8-26.7
	c-1.3-4.9-9.8-24.9-6.3-33.9c0,0,1.7-9.6-19.7-18.4L1164.3,922.9z"/>
<path class="st0" d="M1515.4,1406.9c0,0,10.9,404.4,9.9,420.3c0,0-37.5,12.4-38.6,3.6c-2.6-21.2-74.9-196.8-78.8-230.2
	c-10.1-84.5-9.6-121.7,6.4-181C1414.4,1419.6,1507.9,1321.2,1515.4,1406.9z"/>
<path class="st1" d="M1525.1,1814c0,0,18.2,34,30.9,41.8c12.7,7.9,57.5,15.3,57.5,15.3l24.1-0.3c0,0,18.2,9.2-24.9,28.6
	c-43.1,19.4-128-5.7-128-5.7v-71.6L1525.1,1814z"/>
<path class="st2" d="M1521.9,1850.4c-6.2,7.2-16.5-2.3-16.5-2.3c-8.3-11.2-22.2-12.1-22.2-12.1l-8.5,70.9l35.8,7.6
	c111.9,22.9,152.8-28.8,152.8-28.8c2.5-16.9-9-19.9-9-19.9c-53.5,7.9-99.5-22.3-99.5-22.3s-5-3.5-10.1-15.9c0,0-0.1-3.7-6.7-2
	l-19.9,8.8c0,0-5.4,2.3-0.9,7.8L1521.9,1850.4z"/>
<path class="st3" d="M1504.9,1862.4c8.6,1.7,21.7,4.3,29.8-1.2c-6.1-3-10.4-7.8-14.1-13.3l1.4,2.4c-6.2,7.2-16.5-2.3-16.5-2.3
	c-8.3-11.2-22.2-12.1-22.2-12.1l-2.2,18.4C1488.3,1858.5,1497.2,1860.8,1504.9,1862.4z"/>
<path class="st4" d="M1549.5,1892.1c-1.7-10.1,3.2-19.2,8.8-27.2c2.5-3.5,5.1-6.9,8.3-9.6c1.2-1,2.7-2.1,4.1-3.3
	c-5.4-2.5-9.7-4.8-12.4-6.3c-1,2.1-2.1,4.3-3.2,6.3c-4.8,8.9-11.3,22.9-21.1,27.4c-18.2,8.3-41-6.9-53.5-20.2l-0.9,7.9l0.5,1.1
	c9.7,6.1,19.6,11.8,29.9,16.7c8.1,3.9,16.7,6.9,22.1,14.4c2.5,3.5,5.9,10.2,7.3,14.2c6.7,1,12.9,1.1,19.7,1
	C1554.9,1908.7,1550.7,1899.5,1549.5,1892.1z"/>
<path class="st5" d="M1634.3,1867.1c-0.7,4.6-3.4,11.6-7.6,15c5.2,0.9,12.5-2.4,16.6-4.1c6.2-2.5,8.7-6.9,10.8-12.2
	C1647.4,1866.8,1640.8,1867.2,1634.3,1867.1z"/>
<path class="st6" d="M1626.7,1904c-21.1,9.6-44.8,10.2-67.7,10.6c-20.2,0.3-41.3-2.9-57.9-15.2c-9.9-7.3-16.8-16.8-22.3-27.4
	l-4.2,34.9l35.8,7.6c111.9,22.9,152.8-28.8,152.8-28.8c0.4-2.4,0.4-4.5,0.3-6.4C1655.7,1891.9,1640,1898,1626.7,1904z"/>
<path class="st3" d="M1521.9,1850.4l-0.8,0.8c6.8,9.4,17.9,15.2,28.4,19.9c11.5,5.1,24.4,8.2,35.4,10.6c10.8,2.3,20.9,6.5,32.2,3
	c9-2.8,13.6-9.3,14.6-17.5c-43.1-1.5-76.8-23.5-76.8-23.5s-5-3.5-10.1-15.9c0,0-0.1-3.7-6.7-2l-19.9,8.8c0,0-5.4,2.3-0.9,7.8
	L1521.9,1850.4z"/>
<path class="st7" d="M1474.8,1906.9l35.8,7.6c111.9,22.9,152.8-28.8,152.8-28.8s2.1,11.2-4.4,17.7c0,0-57.1,44.4-151.5,22.6
	c0,0-18.6-2.4-33.7-7.7C1473.8,1918.2,1470.9,1908.3,1474.8,1906.9z"/>
<path class="st8" d="M1568.5,1847.9c-0.4,0.1-4.3,0.8-8.8,4.4c-4.5,3.6-9.4,10.2-11.8,21.3c-0.4,1.8,0.7,3.5,2.5,3.9
	c1.8,0.4,3.5-0.7,3.9-2.5c2.2-9.9,6.2-14.9,9.6-17.7c1.7-1.4,3.2-2.1,4.3-2.6c0.5-0.2,1-0.3,1.2-0.4l0.3-0.1l0,0l0,0l0,0l0,0l0,0
	c1.8-0.3,3-2,2.7-3.8C1571.9,1848.8,1570.2,1847.6,1568.5,1847.9L1568.5,1847.9z"/>
<path class="st8" d="M1580.8,1852.4c-0.3,0.1-3.7,1.3-7.4,5.1c-3.7,3.7-7.5,10-8.9,19.8c-0.2,1.8,1,3.4,2.8,3.7
	c1.8,0.2,3.4-1,3.7-2.8c1.2-8.5,4.3-13.3,7.1-16.1c1.4-1.4,2.7-2.3,3.6-2.8c0.5-0.3,0.8-0.4,1-0.5l0.2-0.1l0-0.1l0,0.1l0,0l0-0.1
	l0,0.1c1.7-0.6,2.6-2.4,2-4.2C1584.3,1852.7,1582.5,1851.8,1580.8,1852.4L1580.8,1852.4z"/>
<path class="st8" d="M1591.7,1857.3c-0.3,0.1-3.4,1.5-6.6,5.4c-3.3,3.8-6.7,10.2-8.1,19.9c-0.2,1.8,1,3.4,2.8,3.7
	c1.8,0.2,3.4-1,3.7-2.8c1.2-8.6,4.1-13.6,6.6-16.5c1.2-1.5,2.4-2.4,3.2-2.9l0.9-0.6l0.2-0.1l0,0l-0.8-1.7l0.7,1.7l0,0l-0.8-1.7
	l0.7,1.7c1.7-0.7,2.4-2.6,1.7-4.3C1595.2,1857.3,1593.3,1856.6,1591.7,1857.3L1591.7,1857.3z"/>
<path class="st8" d="M1606.2,1861.1c-0.4,0.1-3.8,0.7-7.5,4c-3.7,3.3-7.4,9.2-8.8,18.9c-0.2,1.8,1,3.4,2.8,3.7
	c1.8,0.2,3.4-1,3.7-2.8c1.2-8.5,4.2-12.7,6.6-14.9c1.2-1.1,2.4-1.7,3.2-2.1l0.9-0.3l0.2,0l0,0l-0.4-1.9l0.3,1.9l0,0l-0.4-1.9
	l0.3,1.9c1.8-0.3,3-2,2.7-3.8C1609.7,1862,1608,1860.8,1606.2,1861.1L1606.2,1861.1z"/>
<path class="st8" d="M1622.1,1862.9c-0.4,0.1-3.8,0.7-7.4,4c-3.7,3.3-7.4,9.2-8.7,18.9c-0.2,1.8,1,3.4,2.8,3.7
	c1.8,0.2,3.4-1,3.7-2.8c1.2-8.5,4.2-12.7,6.6-15c1.2-1.1,2.4-1.7,3.2-2.1l0.9-0.3l0.2,0l0,0l-0.4-2l0.3,2l0,0l-0.4-2l0.3,2
	c1.8-0.3,3-2,2.7-3.8C1625.6,1863.7,1623.9,1862.6,1622.1,1862.9L1622.1,1862.9z"/>
<path class="st0" d="M1406.4,1441.4c-122.4-104.4-288-286.9-288-286.9s-46.4-57.8,6.7-116.8c50.3-55.7,132.1,5.7,137.9,15.8
	c0,0,209.5,233.9,244.8,329.3C1507.9,1382.8,1476.8,1471.9,1406.4,1441.4z"/>
<path class="st0" d="M1081.4,1003.6c0,0-42.3,53.2,30.7,141.3c56.5,68.3,188,8.8,167.3-88C1259,961.3,1145.5,916.7,1081.4,1003.6z"
	/>
<path class="st9" d="M1131,874c-16.6,37.7-67.2,180.3-67.2,180.3c161.7,136.1,221.1,64.7,225.2,47.2c0.5-2.1,20.4-134.4,30.3-198.1
	C1319.3,903.4,1300.2,833.7,1131,874z"/>
<path class="st10" d="M1212.4,384.4c0,0-8.8,61.8-32.3,87l113.6,38c0,0-0.6-44.3,19.4-76.1L1212.4,384.4z"/>
<path class="st11" d="M1204.2,421.7c6-20.1,8.5-37.5,8.5-37.5l97.8,53.5c-4.2,6.5-8.7,26.5-12.1,32.2
	C1259,467.5,1231.8,451.5,1204.2,421.7z"/>
<path class="st10" d="M1339.9,637.5c8.8,37.5,7,74.7,4.4,112.8c-2.3,33.8-3.2,68-9.5,101.4c-3.3,17.7-8.4,35.1-15.5,51.7
	C1299.2,950.3,1131,874,1131,874l-56.3-244.8c0,0,44.1-106,96.8-111.3c0,0,53.1-23.9,127,6C1298.5,523.9,1325.4,575.5,1339.9,637.5z
	"/>
<path class="st10" d="M1074.7,635.7c-1.5-118.8,105.4-164.3,105.4-164.3l113.6,38l16.9,50.6C1310.6,560.1,1188.3,672.2,1074.7,635.7
	z"/>
<path class="st10" d="M1129.2,1013.5c0,0-68.9-5.5-98.6,105.7c-23,86.1,103.6,163.1,171.5,91
	C1269.1,1139,1238.9,1018.3,1129.2,1013.5z"/>
<path class="st10" d="M1005.8,1494.7c0,0-112.5,0.2-82.2-87.8c48.3-140.1,105.6-300.9,105.6-300.9s32.5-63,109.1-42.2
	c115.6,31.3,76.6,131.1,78.5,125C1216.7,1188.8,1043.2,1466.6,1005.8,1494.7z"/>
<path class="st10" d="M981,1505.2c0,0-388.9,29.6-404.8,28.8c0,0-16.3-39.3-7.5-40.5c21.2-2.9,195.3-76.1,228.6-80.5
	c84.4-11.1,121.6-11.1,181,4.2C978.3,1417.2,1049.5,1497.6,981,1505.2z"/>
<path class="st12" d="M576.1,1534c0,0-34.3,17.6-42.4,30.1c-8.1,12.5-16.3,57.2-16.3,57.2l-0.1,24.1c0,0-9.5,18.1-28.2-25.4
	c-18.7-43.4,7.8-127.8,7.8-127.8l71.6,1.2L576.1,1534z"/>
<path class="st2" d="M539.8,1530.2c-7.1-6.4,2.6-16.5,2.6-16.5c11.3-8.1,12.5-22,12.5-22l-70.8-9.7l-8.2,35.7
	c-24.8,111.5,26.2,153.3,26.2,153.3c16.8,2.8,20-8.7,20-8.7c-7-53.6,24-99.1,24-99.1s3.6-4.9,16.1-9.8c0,0,3.7,0,2.2-6.7l-8.4-20.1
	c0,0-2.2-5.4-7.8-1.1L539.8,1530.2z"/>
<path class="st3" d="M528.1,1513c-1.9,8.6-4.6,21.7,0.7,29.8c3.1-6,8-10.3,13.5-13.9l-2.4,1.3c-7.1-6.4,2.6-16.5,2.6-16.5
	c11.3-8.1,12.5-22,12.5-22l-18.4-2.5C532.2,1496.5,529.8,1505.3,528.1,1513z"/>
<path class="st4" d="M497.7,1557.1c10.1-1.5,19.1,3.5,27.1,9.3c3.5,2.5,6.8,5.2,9.5,8.5c1,1.3,2.1,2.7,3.2,4.1
	c2.6-5.4,5-9.6,6.5-12.3c-2.1-1.1-4.2-2.2-6.3-3.3c-8.8-5-22.7-11.6-27.1-21.6c-8-18.3,7.6-40.9,21.1-53.2l-7.9-1.1l-1.2,0.5
	c-6.2,9.6-12.1,19.4-17.2,29.6c-4,8-7.1,16.6-14.8,21.9c-3.5,2.4-10.3,5.7-14.3,7.1c-1.1,6.7-1.3,12.9-1.3,19.7
	C481,1562.2,490.2,1558.1,497.7,1557.1z"/>
<path class="st5" d="M521.2,1642.3c-4.5-0.7-11.5-3.6-14.9-7.8c-1,5.2,2.2,12.6,3.8,16.6c2.4,6.3,6.7,8.8,12,11
	C521.2,1655.4,521,1648.8,521.2,1642.3z"/>
<path class="st6" d="M484.4,1634.1c-9.2-21.3-9.4-45-9.4-67.8c0-20.2,3.6-41.2,16.2-57.6c7.5-9.7,17.1-16.6,27.7-21.8l-34.8-4.7
	l-8.2,35.7c-24.8,111.5,26.2,153.3,26.2,153.3c2.4,0.4,4.5,0.5,6.3,0.4C496,1663.3,490.2,1647.5,484.4,1634.1z"/>
<path class="st3" d="M539.8,1530.2l-0.8-0.8c-9.6,6.6-15.5,17.6-20.4,28c-5.3,11.4-8.6,24.2-11.2,35.2c-2.5,10.7-6.8,20.8-3.5,32.1
	c2.6,9,9,13.8,17.3,14.9c2.2-43.1,24.8-76.4,24.8-76.4s3.6-4.9,16.1-9.8c0,0,3.7,0,2.2-6.7l-8.4-20.1c0,0-2.2-5.4-7.8-1.1
	L539.8,1530.2z"/>
<path class="st7" d="M484.1,1482.1l-8.2,35.7c-24.8,111.5,26.2,153.3,26.2,153.3s-11.3,1.9-17.6-4.7c0,0-43.5-57.8-20-151.8
	c0,0,2.7-18.5,8.3-33.6C472.8,1480.9,482.8,1478.2,484.1,1482.1z"/>
<path class="st8" d="M541.5,1576.8c-0.1-0.4-0.7-4.3-4.3-8.9c-3.6-4.6-10.1-9.6-21.1-12.2c-1.8-0.4-3.5,0.7-3.9,2.4
	c-0.4,1.8,0.7,3.5,2.4,3.9c9.8,2.3,14.8,6.5,17.5,9.9c1.3,1.7,2.1,3.2,2.5,4.3c0.2,0.5,0.3,1,0.4,1.2l0.1,0.3l0,0l0,0l0,0l0,0l0,0
	c0.3,1.8,1.9,3,3.7,2.8C540.5,1580.2,541.8,1578.6,541.5,1576.8L541.5,1576.8z"/>
<path class="st8" d="M536.8,1589c-0.1-0.3-1.3-3.7-4.9-7.4c-3.7-3.7-9.9-7.7-19.7-9.2c-1.8-0.3-3.5,0.9-3.7,2.7
	c-0.3,1.8,0.9,3.5,2.7,3.7c8.5,1.3,13.2,4.6,16,7.3c1.4,1.4,2.2,2.7,2.8,3.6c0.3,0.5,0.4,0.8,0.5,1l0.1,0.2l0.1,0l-0.1,0l0,0l0.1,0
	l-0.1,0c0.6,1.7,2.4,2.7,4.1,2.1C536.4,1592.6,537.4,1590.7,536.8,1589L536.8,1589z"/>
<path class="st8" d="M531.7,1599.8c-0.1-0.4-1.5-3.4-5.3-6.7c-3.8-3.3-10-6.9-19.7-8.4c-1.8-0.3-3.5,1-3.7,2.7
	c-0.3,1.8,1,3.5,2.7,3.7c8.5,1.3,13.5,4.3,16.4,6.8c1.4,1.3,2.4,2.4,2.9,3.2l0.5,0.9l0.1,0.2l0,0l1.7-0.7l-1.7,0.7l0,0l1.7-0.7
	l-1.7,0.7c0.7,1.7,2.6,2.5,4.3,1.8C531.6,1603.4,532.4,1601.5,531.7,1599.8L531.7,1599.8z"/>
<path class="st8" d="M527.7,1614.4c-0.1-0.4-0.7-3.8-3.9-7.5c-3.2-3.7-9-7.6-18.7-9.1c-1.8-0.3-3.5,0.9-3.7,2.7
	c-0.3,1.8,0.9,3.5,2.7,3.7c8.5,1.3,12.6,4.4,14.8,6.9c1.1,1.3,1.7,2.4,2,3.2l0.3,0.9l0,0.2l0,0l2-0.4l-2,0.3l0,0l2-0.4l-2,0.3
	c0.3,1.8,1.9,3,3.7,2.7C526.7,1617.8,527.9,1616.1,527.7,1614.4L527.7,1614.4z"/>
<path class="st8" d="M525.6,1630.2c-0.1-0.4-0.7-3.8-3.9-7.5c-3.2-3.7-9-7.6-18.8-9.1c-1.8-0.3-3.5,1-3.7,2.7
	c-0.3,1.8,1,3.5,2.7,3.7c8.5,1.3,12.6,4.4,14.8,6.9c1.1,1.3,1.7,2.4,2,3.2l0.3,0.9l0,0.2l0,0l1.9-0.4l-2,0.3l0,0l1.9-0.4l-2,0.3
	c0.3,1.8,2,3,3.7,2.7C524.7,1633.7,525.9,1632,525.6,1630.2L525.6,1630.2z"/>
<path class="st13" d="M1442.9,1258.2c-50.1,88.6-147.7,154.1-135.7,140.5c-115.7-105.1-223.9-224.3-223.9-224.3s-6-75.1,75.5-133.6
	c0,0,72.8-56.3,116-12.2C1274.8,1028.5,1379,1161,1442.9,1258.2z"/>
<path class="st14" d="M1074.5,982c-24.3,57.3-49.9,134.4-49.9,134.4c183.5,104.9,231.7,50,256.8-23.1c0.4-1.2-3-48.8-9.1-99.5
	L1074.5,982z"/>
<path class="st14" d="M1029.2,1106c0,0-3.8,9.3-76.8,172.3c0,0,72.3,77.2,156.6,90.7l131-204.8c74.4-128.4-3.7-147.9-114.7-154.4
	C1125.2,1009.8,1073.2,1005.6,1029.2,1106z"/>
<path class="st15" d="M1074.7,784.5c-10.8,95.3-24.5,254.8-24.5,254.8c114.5,93.8,292.1,93.6,290.8,75.6
	c-3.4-49.3,7.3-300.1,12.2-338.4C1353.2,776.6,1243.9,744.2,1074.7,784.5z"/>
<path class="st11" d="M1215,402.4c-9.4-7.9-12.2-10.5-17.9-21.4c-12.8-24.4-21.1-54.1-15.1-81.7c9.8-45.1,54.1-77.4,102.9-73.1
	c24.7,2.2,49.8,4.4,69.4,20.9c13.5,11.4,21.3,36.3,11.2,50.6c-7.6,10.8-21.3,17.4-32.1,24.9c-12.7,8.8-27,18.1-36.1,30.6
	c-7.1,9.5-13.7,21.6-16.9,32.7c-3,10.3-1.4,21.3-1.9,32l-14.7,12C1263.7,430,1237.3,421.1,1215,402.4z"/>
<path class="st10" d="M1366.1,452.2c0,0-3.3,11.7-20.7,6.3c0,0-34.8-5.1-64.7-18.8c-21.2-9.8-30.5-18-29.4-44.1l7.4-130.2
	c15.8-58.3,86.9-26,86.9-26c4.6,1.9,12.4,7.7,15.3,11.6c0,0,23.4,29.1,26.7,65.3c0.8,8.3-4.6,14-7.3,19.6c0,0,3.5,16,17.3,37.7
	c0,0,2.2,5.1-3.7,8.4c0,0-3.7,3-12.7,4.3c0,0-4.7-0.3-4,6c0,0-0.3,9.2,0.1,11c0.7,2.9-4.7,6.7-4.7,6.7l1.7,3.7c0,0,0.7,4.8-5.3,8.7
	c0,0-3.3,2.3-3.4,9.6C1365.6,432.2,1367.4,449.7,1366.1,452.2z"/>
<path class="st16" d="M1264.9,353.4c6.2,0.3,13.6,0,19.8,4.7c0.6,10.3,8.6,20.7,16.9,26.9c5.3,3.9,11.2,5.9,16.8,9.1
	c9.1,5.2,10.3,10.4,11.9,19.9c3.4,19.9,19,25.3,35.9,26.8c0.3,4.8,0.5,10.1-0.2,11.5c0,0-3.3,11.7-20.7,6.3c0,0-34.8-5.1-64.7-18.8
	c-8.6-3.9-16.1-6.5-20.9-11.2c-3.4-17.9,4.8-24.9,7.4-37C1269.9,379.1,1270,366.3,1264.9,353.4z"/>
<path class="st16" d="M1360.8,403.9c-9.5,3.2-16.8,23.7-19.4,32.9c-12.6-5.1-12.6-20.2,5-37.6c6.8-6.8,20-7.2,30.7-2.5
	c0,1.3,0,1.5,0,3C1370.2,398.1,1367.7,401.6,1360.8,403.9z"/>
<path class="st16" d="M1375.2,328.8c1.5,0.8,2.4-1.3,2.4-1.3c1.1-2.1,0.9-4.1,0.9-4.1c-0.2-1.7-1.3-2.6-1.3-2.6
	c-3.9-1.8-15.3-3-22.5-2.8c-4,0.1-12,2.1-13.3,5.6c-0.4,1-0.4,3.4,0.7,4.1C1342.1,327.8,1363.6,323.3,1375.2,328.8z"/>
<path class="st17" d="M1365.7,339.8c-0.4,4-2.9,7-5.6,6.7c-2.7-0.3-4.6-3.7-4.2-7.7c0.4-4,2.9-7,5.6-6.7
	C1364.2,332.4,1366.1,335.9,1365.7,339.8z"/>
<path class="st17" d="M1361.7,335.8c0,0,9,1.6,12.3-3.3c0,0-4.1,1.5-11.7-0.1C1362.3,332.3,1360.2,334,1361.7,335.8z"/>
<path class="st18" d="M1372.6,375.9c0,0-0.7,0.6-1.3,2c-0.4,0.7-0.2,1.6-0.1,2.6c0.1,1,0.9,1.8,1.4,2.7c1.5,1.4,3.4,2,4.8,2
	c1.4,0.1,2.3-0.3,2.3-0.3S1370.9,383.7,1372.6,375.9z"/>
<path class="st18" d="M1389.3,382.2c-0.1-0.8-2.5-1.5-3.1-1.6c-1.1-0.1-2.1,0.3-2.9,0.9c-1.6,1.2-1.6,2.7-4,4
	C1379.2,385.5,1387.8,383,1389.3,382.2z"/>
<path class="st16" d="M1205.6,416.6c11.7-7.1,25.1-26.4,28.5-41.8c3.8-17.5-17.1-31.9,5.8-39.2c9.7-3.1,15.4,2.8,20.9,11
	c1.5,2.2,6.9,11.4,9.9,16.8l14.1-5.2c1.9-7.7-0.8-22.1,0.1-28c1.5-10,4.1-19.2,12.1-26.4c7.2-6.5,21.4-8.2,22.9-17.7
	c0.7-4.4-1.3-11.4-1.1-16.4c0.9-17.3-1.6-26.1-14.4-38.7c-8.9-8.8-18-10.6-29.8-11.2c-48-2.4-91.5,31.3-100.2,78.5
	c-4.5,24.4,3.4,45.1,11.6,67.4C1186,365.5,1199.7,395.2,1205.6,416.6z"/>
<path class="st10" d="M1251.4,377.1c-2.7,2-6,3.1-10.3,3c-11.4-0.3-20.7-11.1-20.8-24.1c-0.1-13,9-23.2,20.4-22.9
	c5.4,0.2,10.3,2.7,14,6.6c5.4,5.8,5.4,16.4,4.1,23.6C1257.7,369.1,1255.4,374.1,1251.4,377.1z"/>
<path class="st18" d="M1247.7,346.2c-0.3-0.7-0.6-1.4-1-2c-0.4-0.6-1.2-1.1-1.9-1.7c-0.8-0.5-1.6-0.7-2.4-1
	c-0.8-0.3-1.7-0.2-2.6-0.2c-0.9,0-1.8,0.3-2.7,0.5c-0.9,0.3-1.7,0.8-2.5,1.3c-0.8,0.5-1.4,1.4-2,2.1c-0.6,0.8-0.9,1.8-1.3,2.7
	c-0.1,0.3-0.2,0.3-0.3,0.9l-0.1,0.5l-0.1,1.1c-0.1,0.6,0,1.8,0,2.7c0,1,0.4,1.8,0.6,2.6c0.3,0.8,0.7,1.6,1.1,2.3
	c1.8,2.8,4.1,4.6,6.5,6.3l0.2,0.2l0.1-0.1l0.2-0.6l-0.1-0.4l-0.1,0.4l-0.2,0l0.4,0.1c-0.8-2.9-2.3-5.5-3-7.9
	c-0.1-0.6-0.4-1.1-0.4-1.7c0-0.5-0.2-1.1-0.1-1.6c0.1-0.5-0.1-0.8,0.1-1.6l0.2-1.1l0.1-0.5l0.1-0.1l0.5-1.2l0.8-1.1
	c0.4-0.3,0.7-0.7,1.2-0.9c0.5-0.2,0.9-0.6,1.4-0.7c1-0.3,2.2-0.5,3.4-0.5c0.5,0.1,1.1,0.1,1.8,0.3
	C1246.3,345.6,1247,345.9,1247.7,346.2z"/>
<path class="st18" d="M1243.9,356c0,0,0.2,0.4,0.7,1l0.4,1.1c0.1,0.3,0,0.7,0,1.2c0,0.4-0.1,1-0.2,1.5c0,0.5-0.3,1.1-0.4,1.6
	c-0.2,0.5-0.4,1.1-0.6,1.6c-0.2,0.6-0.5,1-0.7,1.3l0,0.1l0,0l0,0l0,0c0.1-0.1-0.2,0.3,0.2-0.2l0,0l-0.2,0.2l-0.4,0.4l-0.6,0.5
	c-0.2,0.2-0.8,0.6-1.3,0.8c-0.5,0.3-1,0.5-1.5,0.7l-1.4,0.4l-1.2,0.1l-1-0.2c-0.5-0.3-1-0.6-1-0.6s0,0.4,0.1,1.2
	c0.1,0.8,1.1,2,2.6,2.5c0.8,0.4,1.5,0.4,2.4,0.5c0.8,0,1.7,0,2.6-0.2c0.8-0.3,1.8-0.4,2.8-1.1c0.5-0.3,1-0.6,1.2-0.9l0.4-0.4
	l0.2-0.2l0.3-0.3l0,0l0.1-0.1l0.1-0.2c0.7-1,1.1-1.9,1.3-2.8c0.3-0.9,0.3-1.9,0.4-2.7c0-1.8-0.3-3.5-1.2-4.8l-0.6-0.9l-0.9-0.7
	c-0.6-0.4-1-0.6-1.4-0.6C1244.3,356,1243.9,356,1243.9,356z"/>
<path class="st19" d="M1331.1,254.5c15.4,2.7,25.2,2.2,39,6.5c14-12.3,20.1-36.9,26.3-52.8c-5.7-4.1-12.9-0.2-19.1-2.9
	c-5.1-2.2-9.6-8.1-14.4-11.2c-15.2-10-21.7-1.9-36.8,3.6c-14.4,5.3-22.9-2-37.4,0.2c-14.6,2.3-28.5,6.1-42.2,11.7
	c-7.2,3-35.1,2.2-37.1,9.9c-1.5,5.7-10.8,14.6-3.2,23.6c6.8,11.1,31.4,4.5,42.6,2.1c7.9-1.6,13.4-11.8,20.8-9.1
	C1283.2,240.8,1295.3,248.1,1331.1,254.5z"/>
<path class="st20" d="M1376.9,405.8l-2.9-3.3c0,0-7.6,2.7-18.1,5.4c0,0,14.2,8.7,18.1,8.7c0,0,1.2-1.4,0-3.4l-1.4-3
	C1372.6,410.2,1375,408.5,1376.9,405.8z"/>
<path class="st15" d="M1186.6,463.1c0,0,16.5,72,132.8,108.4c0,0,44.2,64.2,33.9,205.1h-285.4c0,0-5.7-166.9,27.7-229.4
	C1095.5,547.2,1116.2,499.7,1186.6,463.1z"/>
<path class="st10" d="M1184.4,649.7c0,0,21.4,112.5-69.7,214.4c-36.7,34.4-47.8-36.3-48.5-46c-2.5-36.4-1.8-35.5,0.4-76.5
	c5-89.3,21-113.1,21-113.1S1145.8,585.7,1184.4,649.7z"/>
<path class="st10" d="M1095.8,886.5c0,0,150,37.5,336.2,15.4c0,0,19-37.4-1-40.8c-45.4-7.8-309.1-75.1-347-51.5
	C1041.6,836.1,1095.8,886.5,1095.8,886.5z"/>
<path class="st10" d="M1083.3,566.9c-18.7,61.6-5.3,101.2,23.9,122.1c29.2,20.9,76.5-9.8,89.1-43.6c17.8-47.5,22-88.9-10.6-117.1
	C1145.3,492.9,1093.8,532.3,1083.3,566.9z"/>
<path class="st10" d="M1424.1,862.4c-4.8,3.1-9,8.5-8.9,14.4c0.2,13.4,13,26.2,21.7,34.9c11.1,11.1,24,28.2,41.7,26.1
	c2.7-0.3,5.4-2.2,8.1-3c5.5-1.7,8.3,1.6,11.7-3.5c1.9-2.9,10-6.7,10.8-9.8c0.8-3,9.7-7.7,10.7-10.5c6.1-16.6,8.8-27.3,2.6-33.1
	c-3.7-3.5-21.5-15.9-23.3-25.4c0,0-3.6-9-26.4-5.2L1424.1,862.4z"/>
</svg>
