<?xml version="1.0" encoding="utf-8"?>
<!-- Generator: Adobe Illustrator 23.0.5, SVG Export Plug-In . SVG Version: 6.00 Build 0)  -->
<svg version="1.1" id="Layer_1" xmlns="http://www.w3.org/2000/svg" xmlns:xlink="http://www.w3.org/1999/xlink" x="0px" y="0px"
	 viewBox="0 0 2000 2000" style="enable-background:new 0 0 2000 2000;" xml:space="preserve">
<style type="text/css">
	.st0{fill-rule:evenodd;clip-rule:evenodd;}
</style>
<path class="st0" d="M1411.9,1107c-0.2,6.3-5.3,11.4-11.7,11.4H607.5v40.3h792.7c6.4,0,11.5,5.1,11.7,11.4V1107z M607.5,990.9h792.7
	c6.4,0,11.5,5.1,11.7,11.4v-111H607.5V990.9z M1454.4,568.9h129.7l-151.4,278.3h-129.6L1454.4,568.9z M1233.5,568.9h129.6
	l-151.3,278.3h-129.6L1233.5,568.9z M1012.5,568.9h129.7L990.9,847.1H861.2L1012.5,568.9z M791.6,568.9h129.6L769.9,847.1H640.3
	L791.6,568.9z M570.6,568.9h129.7L549,847.1H419.3L570.6,568.9z M1427,446.3h65.8c8.4,0,15.2,6.8,15.2,15.2v68h69.9
	c32,0,58.2,26.2,58.2,58.2v245.4c0,32-26.2,58.2-58.2,58.2H1508v546.6c0,2-0.4,4-1.2,5.7l47.4,3.6l55.7,106.9l-303.5-1.9l60.6-105.4
	l45.9-3.1c-0.8-1.8-1.2-3.9-1.2-6v-163c-0.2,6.3-5.3,11.4-11.7,11.4H607.5v151.6c0,2-0.4,4-1.1,5.7l47.4,3.6l55.7,106.9l-303.5-1.9
	l60.7-105.4l45.9-3.1c-0.8-1.8-1.2-3.9-1.2-6V891.3H422c-32,0-58.2-26.1-58.2-58.2V587.8c0-32.1,26.1-58.2,58.2-58.2h89.4v-68
	c0-8.4,6.8-15.2,15.2-15.2h65.8c8.4,0,15.2,6.8,15.2,15.2v68h804.4v-68C1411.9,453.1,1418.7,446.3,1427,446.3z"/>
</svg>
